HIERARCHY
ROOT Hips
{
    OFFSET 0.000000 0.000000 0.000000
    CHANNELS 6 Xposition Yposition Zposition Zrotation Yrotation Xrotation
    JOINT Chest
    {
        OFFSET 0.000000 1.634758 -0.000000
        CHANNELS 3 Zrotation Yrotation Xrotation
        JOINT Chest2
        {
            OFFSET 0.000000 2.197341 0.000000
            CHANNELS 3 Zrotation Yrotation Xrotation
            JOINT Neck
            {
                OFFSET 0.000000 0.961544 0.000000
                CHANNELS 3 Zrotation Yrotation Xrotation
                JOINT Head
                {
                    OFFSET 0.000000 0.632542 -0.032565
                    CHANNELS 3 Zrotation Yrotation Xrotation
                    End Site
                    {
                        OFFSET -0.000001 0.439502 2.922845
                    }
                }
            }
            JOINT LeftCollar
            {
                OFFSET 0.167536 0.778237 -0.168280
                CHANNELS 3 Zrotation Yrotation Xrotation
                JOINT LeftShoulder
                {
                    OFFSET 0.831514 -0.002900 0.006458
                    CHANNELS 3 Zrotation Yrotation Xrotation
                    JOINT LeftElbow
                    {
                        OFFSET 2.272872 -0.026639 0.059314
                        CHANNELS 3 Zrotation Yrotation Xrotation
                        JOINT LeftWrist
                        {
                            OFFSET 2.081982 -0.024402 0.054333
                            CHANNELS 3 Zrotation Yrotation Xrotation
                            JOINT LeftHandThumb1
                            {
                                OFFSET 0.218903 -0.128645 0.283837
                                CHANNELS 3 Zrotation Yrotation Xrotation
                                JOINT LeftHandThumb2
                                {
                                    OFFSET 0.137157 -0.025101 0.077902
                                    CHANNELS 3 Zrotation Yrotation Xrotation
                                    JOINT LeftHandThumb3
                                    {
                                        OFFSET 0.163592 -0.061323 0.054922
                                        CHANNELS 3 Zrotation Yrotation Xrotation
                                        End Site
                                        {
                                            OFFSET 0.242814 -0.064473 0.093387
                                        }
                                    }
                                }
                            }
                            JOINT LeftHandFore1
                            {
                                OFFSET 0.767340 -0.016076 0.196678
                                CHANNELS 3 Zrotation Yrotation Xrotation
                                JOINT LeftHandFore2
                                {
                                    OFFSET 0.194910 -0.087741 0.036151
                                    CHANNELS 3 Zrotation Yrotation Xrotation
                                    JOINT LeftHandFore3
                                    {
                                        OFFSET 0.092875 -0.089218 0.013319
                                        CHANNELS 3 Zrotation Yrotation Xrotation
                                        End Site
                                        {
                                            OFFSET 0.097281 -0.166262 0.016137
                                        }
                                    }
                                }
                            }
                            JOINT LeftHandMiddle1
                            {
                                OFFSET 0.709887 -0.008320 0.018526
                                CHANNELS 3 Zrotation Yrotation Xrotation
                                JOINT LeftHandMiddle2
                                {
                                    OFFSET 0.224654 -0.096229 0.018290
                                    CHANNELS 3 Zrotation Yrotation Xrotation
                                    JOINT LeftHandMiddle3
                                    {
                                        OFFSET 0.112279 -0.093619 0.003456
                                        CHANNELS 3 Zrotation Yrotation Xrotation
                                        End Site
                                        {
                                            OFFSET 0.124215 -0.200489 0.002258
                                        }
                                    }
                                }
                            }
                            JOINT LeftHandRing1
                            {
                                OFFSET 0.743817 -0.005823 -0.153668
                                CHANNELS 3 Zrotation Yrotation Xrotation
                                JOINT LeftHandRing2
                                {
                                    OFFSET 0.318812 -0.149696 -0.026139
                                    CHANNELS 3 Zrotation Yrotation Xrotation
                                    JOINT LeftHandRing3
                                    {
                                        OFFSET 0.098079 -0.093764 -0.013936
                                        CHANNELS 3 Zrotation Yrotation Xrotation
                                        End Site
                                        {
                                            OFFSET 0.052405 -0.107176 -0.013671
                                        }
                                    }
                                }
                            }
                            JOINT LeftHandLittle1
                            {
                                OFFSET 0.689408 -0.053302 -0.308304
                                CHANNELS 3 Zrotation Yrotation Xrotation
                                JOINT LeftHandLittle2
                                {
                                    OFFSET 0.175349 -0.075526 -0.040032
                                    CHANNELS 3 Zrotation Yrotation Xrotation
                                    JOINT LeftHandLittle3
                                    {
                                        OFFSET 0.079813 -0.085301 -0.029154
                                        CHANNELS 3 Zrotation Yrotation Xrotation
                                        End Site
                                        {
                                            OFFSET 0.098803 -0.155258 -0.049208
                                        }
                                    }
                                }
                            }
                        }
                    }
                }
            }
            JOINT RightCollar
            {
                OFFSET -0.167536 0.778237 -0.168280
                CHANNELS 3 Zrotation Yrotation Xrotation
                JOINT RightShoulder
                {
                    OFFSET -0.831514 -0.002900 0.006457
                    CHANNELS 3 Zrotation Yrotation Xrotation
                    JOINT RightElbow
                    {
                        OFFSET -2.272872 -0.026639 0.059313
                        CHANNELS 3 Zrotation Yrotation Xrotation
                        JOINT RightWrist
                        {
                            OFFSET -2.081982 -0.024402 0.054331
                            CHANNELS 3 Zrotation Yrotation Xrotation
                            JOINT RightHandThumb1
                            {
                                OFFSET -0.218911 -0.128571 0.283837
                                CHANNELS 3 Zrotation Yrotation Xrotation
                                JOINT RightHandThumb2
                                {
                                    OFFSET -0.137157 -0.025101 0.077902
                                    CHANNELS 3 Zrotation Yrotation Xrotation
                                    JOINT RightHandThumb3
                                    {
                                        OFFSET -0.167455 -0.054447 0.050337
                                        CHANNELS 3 Zrotation Yrotation Xrotation
                                        End Site
                                        {
                                            OFFSET -0.236691 -0.075431 0.100619
                                        }
                                    }
                                }
                            }
                            JOINT RightHandFore1
                            {
                                OFFSET -0.767344 -0.015991 0.196679
                                CHANNELS 3 Zrotation Yrotation Xrotation
                                JOINT RightHandFore2
                                {
                                    OFFSET -0.194933 -0.087698 0.036149
                                    CHANNELS 3 Zrotation Yrotation Xrotation
                                    JOINT RightHandFore3
                                    {
                                        OFFSET -0.090640 -0.087944 0.028502
                                        CHANNELS 3 Zrotation Yrotation Xrotation
                                        End Site
                                        {
                                            OFFSET -0.093835 -0.164335 0.039444
                                        }
                                    }
                                }
                            }
                            JOINT RightHandMiddle1
                            {
                                OFFSET -0.709887 -0.008302 0.018525
                                CHANNELS 3 Zrotation Yrotation Xrotation
                                JOINT RightHandMiddle2
                                {
                                    OFFSET -0.224640 -0.096249 0.018292
                                    CHANNELS 3 Zrotation Yrotation Xrotation
                                    JOINT RightHandMiddle3
                                    {
                                        OFFSET -0.111334 -0.092707 0.019863
                                        CHANNELS 3 Zrotation Yrotation Xrotation
                                        End Site
                                        {
                                            OFFSET -0.122377 -0.198673 0.034395
                                        }
                                    }
                                }
                            }
                            JOINT RightHandRing1
                            {
                                OFFSET -0.743819 -0.005785 -0.153669
                                CHANNELS 3 Zrotation Yrotation Xrotation
                                JOINT RightHandRing2
                                {
                                    OFFSET -0.318823 -0.149673 -0.026138
                                    CHANNELS 3 Zrotation Yrotation Xrotation
                                    JOINT RightHandRing3
                                    {
                                        OFFSET -0.098490 -0.094126 -0.006716
                                        CHANNELS 3 Zrotation Yrotation Xrotation
                                        End Site
                                        {
                                            OFFSET -0.053032 -0.107703 -0.002821
                                        }
                                    }
                                }
                            }
                            JOINT RightHandLittle1
                            {
                                OFFSET -0.689403 -0.053298 -0.308303
                                CHANNELS 3 Zrotation Yrotation Xrotation
                                JOINT RightHandLittle2
                                {
                                    OFFSET -0.175354 -0.075522 -0.040033
                                    CHANNELS 3 Zrotation Yrotation Xrotation
                                    JOINT RightHandLittle3
                                    {
                                        OFFSET -0.081270 -0.086376 -0.020735
                                        CHANNELS 3 Zrotation Yrotation Xrotation
                                        End Site
                                        {
                                            OFFSET -0.102810 -0.158268 -0.025883
                                        }
                                    }
                                }
                            }
                        }
                    }
                }
            }
        }
    }
    JOINT LeftHip
    {
        OFFSET 0.685143 0.673822 -0.044491
        CHANNELS 3 Zrotation Yrotation Xrotation
        JOINT LeftKnee
        {
            OFFSET 0.085364 -3.750208 0.017676
            CHANNELS 3 Zrotation Yrotation Xrotation
            JOINT LeftAnkle
            {
                OFFSET 0.094583 -4.155206 0.019585
                CHANNELS 3 Zrotation Yrotation Xrotation
                JOINT LeftToe
                {
                    OFFSET -0.000000 -0.395925 0.621478
                    CHANNELS 3 Zrotation Yrotation Xrotation
                    End Site
                    {
                        OFFSET -0.000000 -0.077878 0.321152
                    }
                }
            }
        }
    }
    JOINT RightHip
    {
        OFFSET -0.685143 0.673822 -0.044492
        CHANNELS 3 Zrotation Yrotation Xrotation
        JOINT RightKnee
        {
            OFFSET -0.085364 -3.750208 0.017677
            CHANNELS 3 Zrotation Yrotation Xrotation
            JOINT RightAnkle
            {
                OFFSET -0.094583 -4.155206 0.019585
                CHANNELS 3 Zrotation Yrotation Xrotation
                JOINT RightToe
                {
                    OFFSET -0.000000 -0.395925 0.621478
                    CHANNELS 3 Zrotation Yrotation Xrotation
                    End Site
                    {
                        OFFSET -0.000000 -0.077878 0.321152
                    }
                }
            }
        }
    }
}
MOTION
Frames: 6
Frame Time: 0.033333
8.707922 7.690634 -8.111074 177.648193 1.250623 161.029617 -9.312842 -9.846454 25.892120 -1.982654 1.671640 -2.649432 1.235708 2.626841 -3.400167 -0.443439 8.549215 -4.309193 -11.895220 -7.422055 0.344901 -48.982510 -6.716776 5.624219 0.088384 -28.187855 -0.359345 11.854786 10.915043 -10.818202 -0.000016 0.000014 0.000004 6.524763 -18.190292 13.841034 4.679381 -7.349959 -5.727107 23.010115 -12.756527 -11.796259 17.827856 -2.512151 -2.748733 16.686804 4.369162 -2.413340 18.807604 -7.748178 -4.687018 16.860540 -2.459524 -1.611505 17.267080 -2.758294 0.538427 16.188282 3.252543 1.262073 16.664341 -4.230377 -0.998392 16.463612 -4.192538 1.230108 16.867678 11.527154 7.570494 16.440235 -1.552449 -1.183949 17.948065 -7.176539 0.808809 11.324922 4.721100 -0.370651 46.259525 16.137159 6.530386 -0.016887 13.025867 -0.155236 1.704269 -1.699184 -15.293398 -0.000002 0.000002 -0.000015 -2.386709 -1.029163 -24.162809 -6.163150 7.563989 -3.606927 -23.009981 12.754598 -11.798840 -16.887920 -6.107749 -1.935753 -17.360607 0.855214 -2.176933 -18.807671 7.748553 -4.685979 -16.454876 -4.589859 -0.007335 -16.566490 -4.924005 -2.195941 -16.188299 -3.252476 1.262254 -16.855080 -2.375633 2.739384 -16.915531 -2.342291 0.520612 -16.867672 -11.527168 7.570485 -14.923182 3.131480 6.031778 -18.805820 -1.525928 4.720161 26.166996 2.121209 0.035411 0.579803 1.084403 56.261307 -21.744879 -2.741570 -7.344964 0.000001 -0.000000 0.000017 -18.437046 1.141069 -8.958995 -0.657132 -1.132277 60.259644 14.675087 -14.159075 -35.603081 0.000004 0.000019 -0.000002
9.146199 7.943892 -8.151940 178.571686 4.906300 160.465195 -8.681001 -9.109635 23.817410 -2.357170 1.529103 -3.846991 1.071617 3.133239 -2.219079 -0.483444 9.307549 -2.029420 -10.781170 -3.855852 0.307487 -41.856339 9.313249 2.150788 0.160722 -36.463745 -0.495293 11.072497 11.170496 -8.114162 -0.000024 -0.000002 0.000012 6.524762 -18.190296 13.841032 4.679382 -7.349952 -5.727104 23.010109 -12.756541 -11.796264 17.827864 -2.512153 -2.748731 16.686802 4.369160 -2.413341 18.807600 -7.748180 -4.687017 16.860540 -2.459530 -1.611509 17.267080 -2.758292 0.538429 16.188278 3.252542 1.262079 16.664345 -4.230375 -0.998394 16.463614 -4.192534 1.230110 16.867682 11.527155 7.570497 16.440231 -1.552449 -1.183948 17.948065 -7.176539 0.808806 10.792969 1.220188 -0.325706 40.078976 5.567049 4.316287 -0.008102 9.171636 -0.108361 2.781940 -2.764155 -11.363509 -0.000007 -0.000003 -0.000002 -2.386709 -1.029162 -24.162798 -6.163153 7.563986 -3.606933 -23.009981 12.754601 -11.798842 -16.887913 -6.107748 -1.935750 -17.360607 0.855214 -2.176933 -18.807674 7.748556 -4.685986 -16.454884 -4.589861 -0.007334 -16.566488 -4.924006 -2.195945 -16.188301 -3.252473 1.262255 -16.855080 -2.375634 2.739383 -16.915531 -2.342292 0.520610 -16.867678 -11.527161 7.570485 -14.923177 3.131477 6.031776 -18.805817 -1.525929 4.720160 30.634342 2.004482 3.198022 0.588647 1.090254 56.727280 -25.350422 -3.277693 2.451893 0.000002 0.000005 -0.000002 -13.562953 1.085786 -6.513238 -0.569992 -1.077837 55.743629 15.308780 -19.069397 -33.780758 0.000007 0.000024 -0.000001
9.629497 8.221195 -8.191807 179.752899 7.845569 159.981125 -7.859899 -8.475486 21.460922 -2.553700 1.387403 -5.027349 0.889399 3.493077 -0.873894 -0.508017 9.771696 0.545534 -8.852149 -0.315413 0.251612 -33.232513 21.589933 0.687897 0.164692 -36.831638 -0.501966 9.618390 11.442985 -5.532326 -0.000014 0.000005 0.000009 6.524764 -18.190298 13.841030 4.679375 -7.349950 -5.727109 23.010128 -12.756538 -11.796252 17.827862 -2.512153 -2.748738 16.686811 4.369161 -2.413341 18.807608 -7.748192 -4.687014 16.860538 -2.459524 -1.611508 17.267080 -2.758297 0.538427 16.188293 3.252529 1.262079 16.664339 -4.230374 -0.998392 16.463610 -4.192538 1.230108 16.867678 11.527149 7.570500 16.440235 -1.552451 -1.183947 17.948063 -7.176540 0.808807 9.310954 -2.246166 -0.257492 33.331375 -16.108519 4.661767 -0.101863 30.014040 -0.387307 3.840726 -3.997910 -10.478948 0.000003 0.000000 -0.000009 -2.386712 -1.029160 -24.162798 -6.163159 7.563987 -3.606933 -23.009974 12.754598 -11.798842 -16.887913 -6.107748 -1.935748 -17.360611 0.855214 -2.176941 -18.807661 7.748549 -4.685980 -16.454889 -4.589859 -0.007334 -16.566490 -4.924001 -2.195938 -16.188290 -3.252479 1.262262 -16.855080 -2.375635 2.739383 -16.915531 -2.342291 0.520608 -16.867672 -11.527168 7.570489 -14.923180 3.131477 6.031779 -18.805815 -1.525927 4.720163 36.006027 1.903485 6.809682 0.573489 1.080159 55.927013 -27.578590 -3.231565 12.680772 -0.000002 -0.000009 0.000010 -8.519258 0.178629 -2.328435 -0.450844 -0.986225 49.135674 14.288695 -23.410587 -31.141018 0.000005 0.000022 -0.000004
10.093214 8.478431 -8.231600 -178.872543 9.982266 159.571442 -6.851394 -7.924795 19.172281 -2.566617 1.265293 -5.908249 0.676124 3.685635 0.405049 -0.516014 9.922606 2.968557 -6.768060 2.482015 0.193857 -23.902822 12.902952 0.349849 0.000001 0.000001 0.000000 7.701833 11.719840 -3.045749 -0.000021 -0.000005 0.000011 6.524767 -18.190298 13.841035 4.679382 -7.349950 -5.727107 23.010107 -12.756541 -11.796267 17.827858 -2.512150 -2.748732 16.686808 4.369161 -2.413340 18.807608 -7.748186 -4.687020 16.860542 -2.459526 -1.611505 17.267075 -2.758295 0.538424 16.188274 3.252541 1.262077 16.664339 -4.230375 -0.998393 16.463610 -4.192539 1.230109 16.867680 11.527153 7.570498 16.440231 -1.552450 -1.183947 17.948067 -7.176538 0.808808 7.488367 -5.397118 -0.185313 26.535664 -12.545649 5.451028 -0.000002 -0.000000 -0.000001 4.669404 -5.280752 -9.629120 -0.000003 -0.000002 0.000002 -2.386711 -1.029157 -24.162800 -6.163157 7.563986 -3.606933 -23.009964 12.754595 -11.798842 -16.887915 -6.107744 -1.935753 -17.360611 0.855216 -2.176938 -18.807652 7.748552 -4.685980 -16.454882 -4.589864 -0.007334 -16.566496 -4.924006 -2.195944 -16.188282 -3.252476 1.262257 -16.855080 -2.375643 2.739384 -16.915531 -2.342284 0.520609 -16.867659 -11.527164 7.570485 -14.923182 3.131474 6.031779 -18.805815 -1.525922 4.720159 41.631474 1.824852 10.714702 0.526903 1.047145 53.417648 -27.462917 -2.173612 23.187981 -0.000005 -0.000010 -0.000003 -4.118155 -1.707749 3.121351 -0.317719 -0.853090 40.855564 10.466184 -25.105827 -27.297401 0.000002 0.000007 0.000003
10.481330 8.671391 -8.270425 -177.369186 12.074426 159.230209 -5.631174 -7.437476 17.247049 -2.365992 1.174824 -6.261705 0.408407 3.933176 1.384824 -0.530018 10.186212 4.805610 -1.206657 2.660548 0.044370 -4.292931 16.879921 0.837484 0.005037 -7.315483 -0.086168 5.697942 11.907938 5.730343 -0.000016 0.000003 0.000002 6.524761 -18.190294 13.841032 4.679379 -7.349949 -5.727107 23.010115 -12.756540 -11.796263 17.827862 -2.512151 -2.748734 16.686806 4.369160 -2.413341 18.807606 -7.748183 -4.687017 16.860538 -2.459527 -1.611505 17.267075 -2.758296 0.538424 16.188280 3.252539 1.262079 16.664343 -4.230374 -0.998395 16.463615 -4.192538 1.230110 16.867683 11.527148 7.570496 16.440233 -1.552449 -1.183948 17.948061 -7.176542 0.808806 1.499601 -5.236693 -0.024093 2.370200 -34.241760 8.920440 -0.265475 44.445248 -0.657105 4.929081 -6.437606 -1.034766 -0.000000 0.000005 -0.000007 -2.386710 -1.029163 -24.162800 -6.163157 7.563989 -3.606931 -23.009970 12.754603 -11.798841 -16.887913 -6.107748 -1.935752 -17.360611 0.855214 -2.176936 -18.807663 7.748553 -4.685980 -16.454882 -4.589861 -0.007334 -16.566488 -4.924003 -2.195944 -16.188288 -3.252476 1.262256 -16.855082 -2.375630 2.739383 -16.915529 -2.342293 0.520611 -16.867666 -11.527169 7.570487 -14.923175 3.131484 6.031775 -18.805815 -1.525924 4.720158 53.007046 1.383816 1.589033 1.104613 1.288617 81.203888 -31.678930 -10.059326 23.903196 0.000000 0.000001 -0.000003 -0.530726 -3.565256 8.761047 -0.201934 -0.697101 32.312012 5.442068 -24.265587 -22.960062 -0.000000 -0.000003 0.000008
10.730763 8.755791 -8.308038 -175.801361 14.131243 158.951447 -4.185919 -6.992521 16.025396 -1.927894 1.117961 -5.815465 0.086201 4.055208 1.872911 -0.530718 10.199388 5.711124 3.467226 1.855762 -0.068169 13.001103 25.488091 3.204674 0.112751 -31.374226 -0.408807 3.603054 12.074477 13.080082 -0.000016 -0.000001 0.000003 6.524766 -18.190296 13.841035 4.679380 -7.349949 -5.727108 23.010113 -12.756541 -11.796261 17.827864 -2.512153 -2.748730 16.686806 4.369162 -2.413336 18.807598 -7.748188 -4.687016 16.860544 -2.459526 -1.611506 17.267080 -2.758295 0.538425 16.188269 3.252538 1.262084 16.664347 -4.230375 -0.998393 16.463610 -4.192537 1.230108 16.867670 11.527152 7.570502 16.440233 -1.552450 -1.183948 17.948065 -7.176539 0.808807 -3.112084 -4.693357 0.082926 -13.469144 -26.002028 9.369546 -0.111901 31.271111 -0.407157 1.689953 -7.428310 7.440194 0.000003 -0.000002 -0.000019 -2.386711 -1.029161 -24.162802 -6.163158 7.563991 -3.606932 -23.009968 12.754600 -11.798837 -16.887920 -6.107749 -1.935753 -17.360611 0.855213 -2.176939 -18.807663 7.748553 -4.685978 -16.454887 -4.589860 -0.007335 -16.566490 -4.924005 -2.195943 -16.188286 -3.252479 1.262262 -16.855074 -2.375637 2.739385 -16.915539 -2.342290 0.520609 -16.867664 -11.527171 7.570492 -14.923169 3.131481 6.031776 -18.805819 -1.525929 4.720161 72.384300 0.934560 -3.766002 1.718727 1.236237 108.546585 -28.316750 -23.121668 25.259796 -0.000007 -0.000015 0.000008 2.253188 -4.406303 12.604014 -0.142819 -0.593417 27.066296 2.282939 -23.101631 -20.273643 0.000004 0.000015 0.000002
